<?xml version="1.0" encoding="UTF-8" standalone="no"?>
<svg width="2659px" height="3144px" viewBox="0 0 2659 3144" version="1.1" xmlns="http://www.w3.org/2000/svg" xmlns:xlink="http://www.w3.org/1999/xlink" xmlns:sketch="http://www.bohemiancoding.com/sketch/ns">
    <!-- Generator: Sketch 3.3.3 (12072) - http://www.bohemiancoding.com/sketch -->
    <title>LOGO + FONT LARGE Copy</title>
    <desc>Created with Sketch.</desc>
    <defs>
        <radialGradient cx="50%" cy="50%" fx="50%" fy="50%" r="42.5825257%" id="radialGradient-1">
            <stop stop-color="#FFFFFF" offset="0%"></stop>
            <stop stop-color="#5E8713" offset="53.8026148%"></stop>
            <stop stop-color="#A4CD4F" offset="100%"></stop>
        </radialGradient>
    </defs>
    <g id="Page-1" stroke="none" stroke-width="1" fill="none" fill-rule="evenodd" sketch:type="MSPage">
        <g id="LOGO-+-FONT-LARGE-Copy" sketch:type="MSArtboardGroup">
            <g id="HEAD" sketch:type="MSLayerGroup" transform="translate(68.000000, 89.000000)">
                <g id="KIWI-LG" transform="translate(363.000000, 0.000000)" sketch:type="MSShapeGroup">
                    <ellipse id="Oval-29" fill="#392D1C" cx="898.073124" cy="901.326396" rx="898.073124" ry="897.673604"></ellipse>
                    <ellipse id="Oval-1" fill="url(#radialGradient-1)" cx="898.073124" cy="901.326396" rx="815.848728" ry="815.485787"></ellipse>
                    <ellipse id="Oval-2" fill="#F8EFC4" cx="898.073124" cy="901.326396" rx="298.031663" ry="297.899079"></ellipse>
                    <path d="M895.092904,559.082837 C911.490465,559.082837 924.783315,538.150998 924.783315,512.330265 C924.783315,486.509533 911.490465,465.577694 895.092904,465.577694 C878.695342,465.577694 865.402492,486.509533 865.402492,512.330265 C865.402492,538.150998 878.695342,559.082837 895.092904,559.082837 Z M1066.55573,603.490057 C1080.75644,611.688838 1102.7343,600.207758 1115.64467,577.846348 C1128.55504,555.484938 1127.50901,530.711008 1113.3083,522.512227 C1099.1076,514.313446 1077.12973,525.794526 1064.21937,548.155936 C1051.309,570.517346 1052.35503,595.291276 1066.55573,603.490057 Z M1192.85775,727.734873 C1201.05653,741.935578 1225.83046,742.981604 1248.19187,730.071238 C1270.55328,717.160872 1282.03436,695.183006 1273.83558,680.982302 C1265.6368,666.781597 1240.86287,665.73557 1218.50146,678.645937 C1196.14005,691.556303 1184.65897,713.534168 1192.85775,727.734873 Z M1240.15642,898.525988 C1240.15642,914.92355 1261.08826,928.2164 1286.90899,928.2164 C1312.72972,928.2164 1333.66156,914.92355 1333.66156,898.525988 C1333.66156,882.128426 1312.72972,868.835576 1286.90899,868.835576 C1261.08826,868.835576 1240.15642,882.128426 1240.15642,898.525988 Z M1195.77811,1070.10006 C1187.57933,1084.30076 1199.06041,1106.27863 1221.42182,1119.189 C1243.78323,1132.09936 1268.55716,1131.05334 1276.75594,1116.85263 C1284.95473,1102.65193 1273.47365,1080.67406 1251.11224,1067.7637 C1228.75083,1054.85333 1203.9769,1055.89936 1195.77811,1070.10006 Z M1071.61396,1196.48396 C1057.41325,1204.68274 1056.36723,1229.45667 1069.27759,1251.81808 C1082.18796,1274.17949 1104.16583,1285.66057 1118.36653,1277.46178 C1132.56724,1269.263 1133.61326,1244.48907 1120.7029,1222.12766 C1107.79253,1199.76625 1085.81466,1188.28517 1071.61396,1196.48396 Z M900.93364,1243.81321 C884.536079,1243.81321 871.243229,1264.74505 871.243229,1290.56578 C871.243229,1316.38651 884.536079,1337.31835 900.93364,1337.31835 C917.331202,1337.31835 930.624052,1316.38651 930.624052,1290.56578 C930.624052,1264.74505 917.331202,1243.81321 900.93364,1243.81321 Z M729.470811,1199.40599 C715.270106,1191.20721 693.29224,1202.68829 680.381874,1225.0497 C667.471508,1247.41111 668.517534,1272.18504 682.718239,1280.38382 C696.918944,1288.5826 718.896809,1277.10152 731.807176,1254.74011 C744.717542,1232.3787 743.671516,1207.60477 729.470811,1199.40599 Z M603.168798,1075.16117 C594.970017,1060.96047 570.196087,1059.91444 547.834677,1072.82481 C525.473267,1085.73518 513.992187,1107.71304 522.190968,1121.91375 C530.389749,1136.11445 555.163678,1137.16048 577.525089,1124.25011 C599.886499,1111.33974 611.367578,1089.36188 603.168798,1075.16117 Z M555.870123,904.37006 C555.870123,887.972498 534.938284,874.679648 509.117551,874.679648 C483.296819,874.679648 462.36498,887.972498 462.36498,904.37006 C462.36498,920.767621 483.296819,934.060471 509.117551,934.060471 C534.938284,934.060471 555.870123,920.767621 555.870123,904.37006 Z M600.248429,732.795988 C608.44721,718.595283 596.96613,696.617417 574.60472,683.707051 C552.24331,670.796685 527.46938,671.842711 519.2706,686.043416 C511.071819,700.244121 522.552898,722.221986 544.914309,735.132353 C567.275719,748.042719 592.049648,746.996693 600.248429,732.795988 Z M724.412584,606.412093 C738.613289,598.213312 739.659315,573.439382 726.748949,551.077972 C713.838583,528.716562 691.860718,517.235482 677.660013,525.434263 C663.459308,533.633044 662.413282,558.406973 675.323648,580.768384 C688.234014,603.129794 710.211879,614.610873 724.412584,606.412093 Z" id="Oval-476" fill="#392D1C"></path>
                </g>
                <text id="kiwi" sketch:type="MSTextLayer" font-family="Questa Sans" font-size="1500" font-weight="normal" fill="#392D1C">
                    <tspan x="0" y="2910">kiwi</tspan>
                </text>
            </g>
        </g>
    </g>
</svg>