<?xml version="1.0" encoding="UTF-8" standalone="no"?>
<svg
   xmlns:sketch="http://www.bohemiancoding.com/sketch/ns"
   xmlns:dc="http://purl.org/dc/elements/1.1/"
   xmlns:cc="http://creativecommons.org/ns#"
   xmlns:rdf="http://www.w3.org/1999/02/22-rdf-syntax-ns#"
   xmlns:svg="http://www.w3.org/2000/svg"
   xmlns="http://www.w3.org/2000/svg"
   xmlns:sodipodi="http://sodipodi.sourceforge.net/DTD/sodipodi-0.dtd"
   xmlns:inkscape="http://www.inkscape.org/namespaces/inkscape"
   width="1796.1462"
   height="1795.3472"
   viewBox="0 0 1796.1462 1795.3472"
   version="1.1"
   id="svg3336"
   inkscape:version="0.91 r13725"
   sodipodi:docname="logo-kiwi.svg">
  <metadata
     id="metadata3361">
    <rdf:RDF>
      <cc:Work
         rdf:about="">
        <dc:format>image/svg+xml</dc:format>
        <dc:type
           rdf:resource="http://purl.org/dc/dcmitype/StillImage" />
        <dc:title>LOGO + FONT LARGE Copy</dc:title>
      </cc:Work>
    </rdf:RDF>
  </metadata>
  <sodipodi:namedview
     pagecolor="#ffffff"
     bordercolor="#666666"
     borderopacity="1"
     objecttolerance="10"
     gridtolerance="10"
     guidetolerance="10"
     inkscape:pageopacity="0"
     inkscape:pageshadow="2"
     inkscape:window-width="1920"
     inkscape:window-height="1018"
     id="namedview3359"
     showgrid="false"
     inkscape:zoom="0.27003817"
     inkscape:cx="1329.5"
     inkscape:cy="831.36396"
     inkscape:window-x="-8"
     inkscape:window-y="-8"
     inkscape:window-maximized="1"
     inkscape:current-layer="svg3336"
     fit-margin-top="0"
     fit-margin-left="0"
     fit-margin-right="0"
     fit-margin-bottom="0" />
  <!-- Generator: Sketch 3.3.3 (12072) - http://www.bohemiancoding.com/sketch -->
  <title
     id="title3338">LOGO + FONT LARGE Copy</title>
  <desc
     id="desc3340">Created with Sketch.</desc>
  <defs
     id="defs3342">
    <radialGradient
       cx="897.87329"
       cy="901.52698"
       fx="897.87329"
       fy="901.52698"
       r="694.66345"
       id="radialGradient-1"
       gradientTransform="scale(1.0002225,0.99977752)"
       gradientUnits="userSpaceOnUse">
      <stop
         stop-color="#FFFFFF"
         offset="0%"
         id="stop3345" />
      <stop
         stop-color="#5E8713"
         offset="53.8026148%"
         id="stop3347" />
      <stop
         stop-color="#A4CD4F"
         offset="100%"
         id="stop3349" />
    </radialGradient>
  </defs>
  <g
     id="Page-1"
     sketch:type="MSPage"
     transform="translate(-431,-92.652832)"
     style="fill:none;fill-rule:evenodd;stroke:none;stroke-width:1">
    <g
       id="LOGO-+-FONT-LARGE-Copy"
       sketch:type="MSArtboardGroup">
      <g
         id="HEAD"
         sketch:type="MSLayerGroup"
         transform="translate(68,89)">
        <g
           id="KIWI-LG"
           transform="translate(363,0)"
           sketch:type="MSShapeGroup">
          <ellipse
             id="Oval-29"
             cx="898.07312"
             cy="901.32642"
             rx="898.07312"
             ry="897.67358"
             style="fill:#392d1c" />
          <ellipse
             id="Oval-1"
             cx="898.07312"
             cy="901.32642"
             rx="815.84875"
             ry="815.48578"
             style="fill:url(#radialGradient-1)" />
          <ellipse
             id="Oval-2"
             cx="898.07312"
             cy="901.32642"
             rx="298.03168"
             ry="297.89908"
             style="fill:#f8efc4" />
          <path
             d="m 895.0929,559.08284 c 16.39756,0 29.69042,-20.93184 29.69042,-46.75257 0,-25.82074 -13.29286,-46.75258 -29.69042,-46.75258 -16.39756,0 -29.69041,20.93184 -29.69041,46.75258 0,25.82073 13.29285,46.75257 29.69041,46.75257 z m 171.4628,44.40722 c 14.2007,8.19878 36.1786,-3.2823 49.089,-25.64371 12.9103,-22.36141 11.8643,-47.13534 -2.3364,-55.33412 -14.2007,-8.19878 -36.1786,3.2823 -49.0889,25.64371 -12.9104,22.36141 -11.8644,47.13534 2.3363,55.33412 z m 126.302,124.24481 c 8.1988,14.20071 32.9728,15.24673 55.3342,2.33637 22.3614,-12.91037 33.8425,-34.88823 25.6437,-49.08894 -8.1988,-14.2007 -32.9727,-15.24673 -55.3341,-2.33636 -22.3614,12.91036 -33.8425,34.88823 -25.6438,49.08893 z m 47.2987,170.79112 c 0,16.39756 20.9319,29.69041 46.7526,29.69041 25.8207,0 46.7526,-13.29285 46.7526,-29.69041 0,-16.39756 -20.9319,-29.69041 -46.7526,-29.69041 -25.8207,0 -46.7526,13.29285 -46.7526,29.69041 z m -44.3783,171.57411 c -8.1988,14.2007 3.2823,36.1785 25.6437,49.0889 22.3614,12.9104 47.1354,11.8643 55.3341,-2.3364 8.1988,-14.2007 -3.2822,-36.1785 -25.6437,-49.0889 -22.3614,-12.9104 -47.1353,-11.8643 -55.3341,2.3364 z M 1071.614,1196.484 c -14.2007,8.1987 -15.2468,32.9727 -2.3364,55.3341 12.9104,22.3614 34.8882,33.8425 49.0889,25.6437 14.2007,-8.1988 15.2468,-32.9727 2.3364,-55.3341 -12.9104,-22.3614 -34.8882,-33.8425 -49.0889,-25.6437 z m -170.68036,47.3292 c -16.39756,0 -29.69041,20.9319 -29.69041,46.7526 0,25.8207 13.29285,46.7526 29.69041,46.7526 16.39756,0 29.69041,-20.9319 29.69041,-46.7526 0,-25.8207 -13.29285,-46.7526 -29.69041,-46.7526 z M 729.47081,1199.406 c -14.2007,-8.1988 -36.17857,3.2823 -49.08894,25.6437 -12.91036,22.3614 -11.86434,47.1353 2.33637,55.3341 14.2007,8.1988 36.17857,-3.2823 49.08894,-25.6437 12.91036,-22.3614 11.86434,-47.1353 -2.33637,-55.3341 z M 603.1688,1075.1612 c -8.19878,-14.2007 -32.97271,-15.2468 -55.33412,-2.3364 -22.36141,12.9104 -33.84249,34.8882 -25.64371,49.089 8.19878,14.2007 32.97271,15.2467 55.33412,2.3363 22.36141,-12.9104 33.84249,-34.8882 25.64371,-49.0889 z M 555.87012,904.37006 c 0,-16.39756 -20.93184,-29.69041 -46.75257,-29.69041 -25.82073,0 -46.75257,13.29285 -46.75257,29.69041 0,16.39756 20.93184,29.69041 46.75257,29.69041 25.82073,0 46.75257,-13.29285 46.75257,-29.69041 z m 44.37831,-171.57407 c 8.19878,-14.20071 -3.2823,-36.17857 -25.64371,-49.08894 -22.36141,-12.91036 -47.13534,-11.86434 -55.33412,2.33637 -8.19878,14.2007 3.2823,36.17857 25.64371,49.08893 22.36141,12.91037 47.13534,11.86434 55.33412,-2.33636 z m 124.16415,-126.3839 c 14.20071,-8.19878 15.24673,-32.97271 2.33637,-55.33412 -12.91037,-22.36141 -34.88823,-33.84249 -49.08894,-25.64371 -14.2007,8.19878 -15.24673,32.97271 -2.33636,55.33412 12.91036,22.36141 34.88823,33.84249 49.08893,25.64371 z"
             id="Oval-476"
             inkscape:connector-curvature="0"
             style="fill:#392d1c" />
        </g>
      </g>
    </g>
  </g>
</svg>
